<?xml version="1.0" standalone="no"?>
<!DOCTYPE svg PUBLIC "-//W3C//DTD SVG 20010904//EN"
 "http://www.w3.org/TR/2001/REC-SVG-20010904/DTD/svg10.dtd">
<svg version="1.0" xmlns="http://www.w3.org/2000/svg"
 width="700.000000pt" height="700.000000pt" viewBox="0 0 700.000000 700.000000"
 preserveAspectRatio="xMidYMid meet">
<metadata>
Created by potrace 1.14, written by Peter Selinger 2001-2017
</metadata>
<g transform="translate(0.000000,700.000000) scale(0.100000,-0.100000)"
fill="#000000" stroke="none">
<path d="M4885 6697 c-258 -86 -494 -341 -716 -773 -45 -88 -83 -160 -84 -162
-1 -1 -31 4 -66 12 -35 8 -86 18 -114 21 -51 7 -81 12 -137 20 -52 7 -265 19
-353 19 -258 0 -556 -48 -790 -127 l-69 -24 -106 131 c-182 226 -427 461 -582
559 -199 126 -378 167 -533 123 -80 -24 -100 -39 -168 -130 -150 -203 -249
-511 -284 -886 -16 -174 -9 -742 12 -950 34 -327 39 -400 28 -402 -4 0 -19 -2
-33 -3 -14 -2 -59 -6 -100 -10 -41 -4 -86 -9 -100 -11 -14 -2 -61 -7 -105 -10
-44 -3 -82 -7 -85 -9 -3 -2 -33 -6 -65 -10 -33 -4 -71 -8 -85 -11 -14 -2 -50
-6 -80 -10 -30 -3 -57 -8 -60 -9 -3 -2 -32 -7 -63 -10 -32 -4 -70 -11 -85 -16
-22 -7 -19 -8 16 -4 23 2 70 7 105 10 34 3 71 8 82 10 11 2 54 7 95 10 41 4
86 8 100 11 14 2 59 6 100 9 41 3 95 8 120 10 25 3 79 7 120 10 41 4 87 8 102
10 21 2 28 -1 29 -13 2 -44 8 -237 10 -319 1 -51 1 -95 -2 -97 -2 -2 -103 -21
-224 -41 -225 -37 -336 -57 -555 -101 -139 -28 -163 -34 -157 -40 2 -2 28 0
58 6 100 18 418 68 479 76 19 3 62 9 95 14 33 5 83 12 110 16 28 3 69 9 91 13
23 5 57 8 75 7 34 -1 34 -1 35 -51 1 -27 3 -126 5 -220 l4 -170 -190 -48
c-104 -26 -197 -50 -205 -52 -8 -2 -42 -11 -75 -19 -33 -8 -118 -31 -190 -51
-72 -21 -156 -44 -188 -52 -32 -9 -56 -18 -53 -20 2 -3 37 4 78 15 72 20 199
49 248 58 14 3 43 10 65 16 22 5 51 12 65 15 14 2 41 8 60 13 19 5 69 16 110
25 88 19 92 20 193 41 42 9 79 15 81 13 6 -5 21 -544 17 -590 0 -9 -18 -21
-43 -29 -42 -12 -353 -129 -413 -155 -16 -7 -104 -43 -195 -80 -91 -37 -169
-72 -175 -77 -7 -7 -4 -7 10 0 11 5 40 17 65 25 25 9 83 30 130 47 47 17 103
38 125 45 22 7 144 49 271 93 l232 80 1 -76 c1 -42 3 -113 6 -157 2 -44 7
-145 10 -225 3 -80 8 -176 10 -215 2 -38 6 -122 10 -185 3 -63 7 -133 10 -155
2 -22 7 -86 10 -143 4 -56 8 -110 10 -120 1 -9 6 -57 9 -107 4 -49 9 -101 11
-115 2 -14 7 -54 11 -90 8 -89 18 -165 31 -245 3 -22 7 -47 8 -55 8 -56 28
-165 40 -216 8 -34 16 -73 19 -85 7 -39 54 -191 75 -244 l19 -50 2567 -3
c2053 -2 2566 0 2562 10 -50 124 -69 173 -72 187 -2 9 -13 50 -24 91 -21 78
-46 196 -56 265 -3 23 -7 50 -9 62 -3 11 -9 65 -16 119 -6 55 -13 110 -15 124
-2 14 -7 50 -10 80 -10 97 -16 154 -20 190 -2 19 -7 69 -10 110 -3 41 -8 86
-10 100 -2 14 -6 61 -10 105 -3 44 -8 98 -10 120 -5 43 -11 109 -20 220 -3 39
-8 86 -10 105 -3 19 -7 64 -10 100 -3 36 -8 85 -10 110 -3 25 -7 72 -10 105
-3 33 -7 80 -10 105 -6 60 -45 444 -50 495 -13 132 -16 163 -20 193 -2 17 -2
32 0 32 2 0 77 -16 167 -35 177 -37 276 -62 526 -131 90 -25 166 -44 168 -42
1 2 -45 19 -104 37 -59 19 -130 42 -159 52 -29 10 -63 21 -75 23 -13 3 -93 23
-180 45 -86 22 -169 42 -185 44 -15 3 -58 11 -95 18 -75 15 -69 6 -83 134 -3
28 -8 75 -11 105 -3 30 -7 71 -9 90 -1 19 -6 61 -10 93 l-7 59 93 -7 c52 -3
112 -8 134 -10 22 -2 74 -7 115 -10 41 -3 86 -8 100 -10 14 -2 52 -6 85 -10
33 -3 74 -8 90 -10 17 -2 62 -7 100 -10 39 -4 87 -11 108 -15 21 -4 37 -4 37
1 0 5 -4 9 -8 9 -5 0 -55 7 -113 15 -146 22 -148 22 -204 30 -27 3 -61 8 -75
10 -14 2 -56 7 -95 10 -38 4 -83 9 -100 11 -16 1 -75 6 -130 9 -98 7 -135 11
-140 17 -2 2 -6 32 -10 68 -3 36 -8 76 -10 90 -2 14 -7 52 -10 85 -3 33 -8 71
-10 85 -2 14 -6 52 -10 85 -3 33 -12 105 -19 160 -8 55 -12 103 -10 107 4 7
661 1 739 -6 22 -2 85 -7 140 -11 55 -4 103 -9 108 -12 4 -2 7 1 7 6 0 6 -10
11 -22 12 -13 0 -32 2 -43 3 -11 2 -58 7 -105 11 -47 4 -98 9 -115 11 -91 9
-345 18 -517 17 -141 -1 -198 3 -199 11 0 6 -2 18 -3 26 -2 8 -6 39 -10 68 -3
28 -9 74 -12 100 l-6 48 89 13 c48 7 97 15 107 17 11 2 42 6 70 9 28 3 65 8
81 10 17 3 55 7 85 10 30 2 73 7 95 9 22 3 78 8 125 11 47 3 110 8 140 10 30
2 107 7 170 10 63 3 117 9 120 11 4 5 -305 -3 -435 -11 -116 -7 -249 -17 -266
-20 -10 -2 -46 -6 -80 -10 -35 -4 -66 -8 -69 -10 -3 -1 -36 -6 -75 -10 -38 -4
-72 -8 -75 -10 -3 -2 -24 -6 -48 -10 -41 -6 -42 -6 -43 25 -1 16 -2 33 -3 38
-1 4 -6 39 -10 77 -5 39 -10 79 -12 90 -2 11 -6 45 -9 75 -4 30 -8 62 -11 72
-6 19 2 25 39 32 15 4 37 8 50 11 97 21 320 64 367 70 25 4 63 10 85 15 22 5
63 12 90 15 28 4 57 8 65 10 8 2 40 7 70 10 30 4 57 8 60 10 3 2 34 6 70 10
112 12 156 25 65 19 -44 -3 -91 -7 -105 -9 -14 -2 -68 -9 -120 -15 -207 -24
-509 -72 -580 -90 -46 -12 -109 -23 -140 -24 -18 -1 -25 4 -26 19 -1 11 -6 49
-13 85 -6 36 -13 79 -16 95 -45 257 -127 599 -190 791 -64 194 -106 298 -183
452 -75 150 -123 205 -220 249 -68 32 -184 41 -247 20z"/>
<path d="M6818 5133 c6 -2 18 -2 25 0 6 3 1 5 -13 5 -14 0 -19 -2 -12 -5z"/>
<path d="M6918 4623 c7 -3 16 -2 19 1 4 3 -2 6 -13 5 -11 0 -14 -3 -6 -6z"/>
<path d="M6869 4207 c5 -5 21 -7 37 -5 27 3 26 4 -8 9 -22 3 -34 1 -29 -4z"/>
<path d="M10 4010 c-9 -6 -10 -10 -3 -10 6 0 15 5 18 10 8 12 4 12 -15 0z"/>
<path d="M6810 3439 c0 -5 11 -9 25 -9 14 0 25 2 25 4 0 2 -11 6 -25 8 -14 3
-25 1 -25 -3z"/>
<path d="M6898 3423 c7 -3 16 -2 19 1 4 3 -2 6 -13 5 -11 0 -14 -3 -6 -6z"/>
</g>
</svg>
